<mxfile host="app.diagrams.net" agent="Mozilla/5.0 (X11; Linux x86_64) AppleWebKit/537.36 (KHTML, like Gecko) Chrome/131.0.0.0 Safari/537.36" version="24.7.17">
  <diagram name="1 oldal" id="FXfOltdK5cTQpTVyXVi2">
    <mxGraphModel dx="1222" dy="636" grid="1" gridSize="10" guides="1" tooltips="1" connect="1" arrows="1" fold="1" page="1" pageScale="1" pageWidth="827" pageHeight="1169" math="0" shadow="0">
      <root>
        <mxCell id="0" />
        <mxCell id="1" parent="0" />
        <mxCell id="6fKVS1l1guUpnbmwwiT--1" value="System" style="rounded=0;whiteSpace=wrap;html=1;fillColor=#dae8fc;strokeColor=#6c8ebf;" vertex="1" parent="1">
          <mxGeometry x="330" y="260" width="120" height="60" as="geometry" />
        </mxCell>
        <mxCell id="6fKVS1l1guUpnbmwwiT--2" value="" style="endArrow=classic;html=1;rounded=0;entryX=0;entryY=0;entryDx=0;entryDy=0;exitX=1;exitY=0.5;exitDx=0;exitDy=0;" edge="1" parent="1" source="6fKVS1l1guUpnbmwwiT--8" target="6fKVS1l1guUpnbmwwiT--1">
          <mxGeometry width="50" height="50" relative="1" as="geometry">
            <mxPoint x="210" y="210" as="sourcePoint" />
            <mxPoint x="440" y="300" as="targetPoint" />
          </mxGeometry>
        </mxCell>
        <mxCell id="6fKVS1l1guUpnbmwwiT--3" value="" style="endArrow=classic;html=1;rounded=0;entryX=-0.033;entryY=0.371;entryDx=0;entryDy=0;exitX=1;exitY=0.5;exitDx=0;exitDy=0;entryPerimeter=0;" edge="1" parent="1" source="6fKVS1l1guUpnbmwwiT--9" target="6fKVS1l1guUpnbmwwiT--1">
          <mxGeometry width="50" height="50" relative="1" as="geometry">
            <mxPoint x="220" y="270" as="sourcePoint" />
            <mxPoint x="320" y="300" as="targetPoint" />
          </mxGeometry>
        </mxCell>
        <mxCell id="6fKVS1l1guUpnbmwwiT--4" value="" style="endArrow=classic;html=1;rounded=0;entryX=0;entryY=0.75;entryDx=0;entryDy=0;exitX=1;exitY=0.5;exitDx=0;exitDy=0;" edge="1" parent="1" source="6fKVS1l1guUpnbmwwiT--10" target="6fKVS1l1guUpnbmwwiT--1">
          <mxGeometry width="50" height="50" relative="1" as="geometry">
            <mxPoint x="220" y="310" as="sourcePoint" />
            <mxPoint x="350" y="290" as="targetPoint" />
          </mxGeometry>
        </mxCell>
        <mxCell id="6fKVS1l1guUpnbmwwiT--5" value="" style="endArrow=classic;html=1;rounded=0;entryX=0;entryY=1;entryDx=0;entryDy=0;exitX=1;exitY=0.25;exitDx=0;exitDy=0;" edge="1" parent="1" source="6fKVS1l1guUpnbmwwiT--11" target="6fKVS1l1guUpnbmwwiT--1">
          <mxGeometry width="50" height="50" relative="1" as="geometry">
            <mxPoint x="230" y="350" as="sourcePoint" />
            <mxPoint x="350" y="305" as="targetPoint" />
          </mxGeometry>
        </mxCell>
        <mxCell id="6fKVS1l1guUpnbmwwiT--8" value="sequencing file" style="rounded=0;whiteSpace=wrap;html=1;fillColor=#fff2cc;strokeColor=#d6b656;" vertex="1" parent="1">
          <mxGeometry x="90" y="210" width="120" height="20" as="geometry" />
        </mxCell>
        <mxCell id="6fKVS1l1guUpnbmwwiT--9" value="configuration file" style="rounded=0;whiteSpace=wrap;html=1;fillColor=#fff2cc;strokeColor=#d6b656;" vertex="1" parent="1">
          <mxGeometry x="90" y="260" width="120" height="20" as="geometry" />
        </mxCell>
        <mxCell id="6fKVS1l1guUpnbmwwiT--10" value="output prefix" style="rounded=0;whiteSpace=wrap;html=1;fillColor=#fff2cc;strokeColor=#d6b656;" vertex="1" parent="1">
          <mxGeometry x="90" y="300" width="120" height="20" as="geometry" />
        </mxCell>
        <mxCell id="6fKVS1l1guUpnbmwwiT--11" value="allignment" style="rounded=0;whiteSpace=wrap;html=1;fillColor=#fff2cc;strokeColor=#d6b656;" vertex="1" parent="1">
          <mxGeometry x="90" y="350" width="120" height="20" as="geometry" />
        </mxCell>
        <mxCell id="6fKVS1l1guUpnbmwwiT--14" value="output file" style="rounded=0;whiteSpace=wrap;html=1;fillColor=#d5e8d4;strokeColor=#82b366;" vertex="1" parent="1">
          <mxGeometry x="520" y="280" width="120" height="20" as="geometry" />
        </mxCell>
        <mxCell id="6fKVS1l1guUpnbmwwiT--15" value="" style="endArrow=classic;html=1;rounded=0;entryX=0;entryY=0.5;entryDx=0;entryDy=0;exitX=1;exitY=0.5;exitDx=0;exitDy=0;" edge="1" parent="1" source="6fKVS1l1guUpnbmwwiT--1" target="6fKVS1l1guUpnbmwwiT--14">
          <mxGeometry width="50" height="50" relative="1" as="geometry">
            <mxPoint x="220" y="320" as="sourcePoint" />
            <mxPoint x="340" y="315" as="targetPoint" />
          </mxGeometry>
        </mxCell>
      </root>
    </mxGraphModel>
  </diagram>
</mxfile>
